<svg>
    <path xmlns="http://www.w3.org/2000/svg" fill-rule="evenodd" clip-rule="evenodd" fill="#ED2127" d="M821.9,429.317c-8.839,3.359-15.534,13.956-20.064,31.79    c-0.081-17.613,5.625-29.607,17.106-35.971C824.287,422.313,826.325,427.431,821.9,429.317L821.9,429.317z M781.761,429.317    c8.838,3.359,15.522,13.956,20.075,31.79c0.07-17.613-5.636-29.607-17.117-35.971    C779.373,422.313,777.336,427.431,781.761,429.317L781.761,429.317z"/>
    <path xmlns="http://www.w3.org/2000/svg" fill-rule="evenodd" clip-rule="evenodd" fill="#21dced" d="M806.82,479.046c6.16-14.771,15.033-26.073,26.644-33.898    c12.588-8.646,22.824-11.744,30.696-9.31c11.167,4.681,14.102,15.54,8.814,32.577c-8.804,21.199-24.314,32.239-46.521,33.129    c27.331-6.608,40.897-22.841,40.699-48.687c-1.071-8.169-6.009-10.323-14.813-6.457c-14.894,6.824-26.061,17.974-33.514,33.432    c-7.907,20.524-6.858,37.485,3.133,50.906c7.813,10.568,17.013,16.844,27.586,18.807c9.794,1.671,13.881-0.571,12.239-6.731    c-4.845-15.744-14.661-25.933-29.427-30.574c17.898,2.032,29.928,12.262,36.1,30.685c1.863,10.445-3.797,15.54-16.979,15.278    c-15.849-1.846-28.542-8.973-38.079-21.392C801.568,521.807,799.367,502.552,806.82,479.046z"/>
    <path xmlns="http://www.w3.org/2000/svg" fill-rule="evenodd" clip-rule="evenodd" fill="#e090d0" d="M796.841,479.046c-6.16-14.771-15.045-26.073-26.655-33.898    c-12.588-8.646-22.813-11.744-30.685-9.31c-11.167,4.681-14.102,15.54-8.814,32.577c8.803,21.199,24.314,32.239,46.509,33.129    c-27.318-6.608-40.885-22.841-40.687-48.687c1.071-8.169,6.009-10.323,14.812-6.457c14.883,6.824,26.062,17.974,33.515,33.432    c7.896,20.524,6.847,37.485-3.133,50.906c-7.813,10.568-17.024,16.844-27.599,18.807c-9.781,1.671-13.869-0.571-12.227-6.731    c4.844-15.744,14.661-25.933,29.427-30.574c-17.898,2.032-29.928,12.262-36.111,30.685c-1.852,10.445,3.808,15.54,16.979,15.278    c15.86-1.846,28.554-8.973,38.079-21.392C802.093,521.807,804.281,502.552,796.841,479.046z"/>
</svg>