<?xml version="1.0" encoding="utf-8"?>
<svg viewBox="0 0 500 500" xmlns="http://www.w3.org/2000/svg">
  <g transform="matrix(0.1, 0, 0, -0.1, 93.310286, 300.764092)" fill="#000000" stroke="none">
    <path d="M580 1416 c0 -8 20 -26 43 -40 61 -35 113 -109 152 -215 13 -33 14 -34 14 -10 1 15 -8 57 -20 95 -17 56 -31 77 -79 126 -41 41 -66 58 -84 58 -16 0 -26 -6 -26 -14z" style="fill-rule: nonzero; paint-order: stroke; fill: rgb(138, 33, 173);"/>
    <path d="M929 1396 c-53 -40 -93 -109 -114 -197 -22 -96 -18 -113 10 -35 38 109 93 184 158 217 20 11 37 26 37 34 0 26 -45 17 -91 -19z" style="fill-rule: nonzero; paint-order: stroke; fill: rgb(138, 33, 173);"/>
    <path d="M177 1316 c-77 -28 -110 -83 -109 -185 3 -202 178 -415 369 -446 33 -6 29 -2 -33 29 -102 51 -166 112 -209 199 -38 79 -62 194 -51 251 9 50 50 79 96 71 106 -20 280 -159 352 -281 64 -109 83 -183 83 -319 0 -114 -1 -123 -32 -188 -70 -147 -217 -258 -353 -265 -110 -7 -123 26 -59 155 34 71 107 151 165 181 55 29 20 27 -44 -3 -73 -34 -146 -110 -187 -197 -38 -78 -41 -98 -24 -147 34 -97 249 -86 410 21 61 41 145 132 175 190 107 207 71 482 -91 697 -81 107 -223 205 -340 235 -70 19 -69 19 -118 2z" style="fill-rule: nonzero; paint-order: stroke; fill: rgb(138, 33, 173);"/>
    <path d="M1314 1320 c-80 -16 -204 -90 -287 -169 -166 -158 -251 -418 -206 -633 30 -145 150 -295 289 -361 194 -92 350 -66 350 59 0 101 -102 242 -214 297 -72 35 -92 34 -35 -1 123 -79 230 -276 174 -322 -10 -9 -37 -11 -83 -8 -174 13 -348 182 -383 373 -20 110 11 262 78 383 66 119 211 247 325 288 56 20 75 18 103 -11 22 -21 25 -33 25 -92 0 -204 -107 -355 -305 -429 -70 -27 -63 -30 20 -9 88 23 170 72 228 135 217 234 166 550 -79 500z" style="fill-rule: nonzero; paint-order: stroke; fill: rgb(138, 33, 173);"/>
  </g>
</svg>