<?xml version="1.0" encoding="utf-8"?>
<svg viewBox="0 0 500 500" xmlns="http://www.w3.org/2000/svg">
  <g transform="matrix(0.1, 0, 0, -0.1, -61.309921, 597.075928)" fill="#000000" stroke="none">
    <path d="M2926 4431 c-4 -5 7 -19 24 -31 17 -12 44 -45 61 -73 25 -42 30 -46 24 -22 -12 56 -94 151 -109 126z"/>
    <path d="M3146 4406 c-34 -31 -55 -70 -70 -126 -4 -14 8 1 26 34 17 32 47 69 65 83 32 25 42 43 24 43 -5 0 -26 -15 -45 -34z"/>
    <path d="M2627 4339 c-38 -29 -50 -85 -37 -161 7 -34 21 -79 32 -101 28 -55 95 -125 143 -149 39 -20 38 -18 -21 35 -73 67 -105 132 -112 230 -4 56 -2 71 14 88 54 59 225 -68 297 -220 27 -57 31 -79 35 -173 4 -106 4 -110 -27 -173 -36 -73 -113 -149 -169 -166 -54 -16 -116 -8 -120 15 -6 31 28 105 74 162 25 30 42 54 39 54 -3 0 -26 -19 -51 -42 -77 -71 -118 -182 -84 -223 35 -42 145 -33 235 19 56 33 126 125 151 199 24 67 24 212 2 283 -41 131 -96 210 -191 278 -98 69 -163 83 -210 45z"/>
    <path d="M3340 4333 c-80 -42 -171 -135 -209 -216 -107 -224 -65 -458 103 -571 58 -40 156 -71 192 -62 109 28 72 179 -70 286 -10 8 4 -16 32 -53 52 -67 77 -131 66 -161 -9 -23 -88 -21 -140 4 -86 42 -168 163 -180 267 -12 98 33 244 100 326 94 116 193 170 238 131 18 -17 20 -27 15 -91 -9 -114 -48 -186 -141 -254 -43 -32 -41 -37 5 -13 121 62 207 228 179 344 -22 92 -89 114 -190 63z"/>
  </g>
</svg>