<?xml version="1.0" encoding="utf-8"?>
<svg viewBox="0 0 500 500" xmlns="http://www.w3.org/2000/svg">
  <g transform="matrix(1, 0, 0, 1, -3.692666, -31.928139)">
    <path class="st2" d="M332.3,243c-0.4-3.6-2.8-9.7-13.4-9.7c-3.7,0-8.3,0.7-13.8,2.1c10.2-5.3,15.6-10.2,17-15.2 c0.8-2.9,0.2-5.8-1.7-8.5c-2.1-3.1-5-4.7-8.5-4.7c-5,0-11.3,3.5-19.1,10.6c6.6-9.4,9.1-16.3,8-21.3c-0.7-2.9-2.5-5.2-5.4-6.8 c-1.7-0.9-3.4-1.3-5.1-1.3c-6.5,0-11.8,6.2-16.6,19.4c1.4-11.4,0.5-18.6-2.8-22.6c-1.9-2.3-4.6-3.5-7.9-3.5c-3.4,0-6.1,1.2-8.1,3.6 c-3.3,4-4.2,11.4-2.7,22.5c-5-13.2-10.3-19.4-16.6-19.4c-1.7,0-3.4,0.4-5.1,1.3c-3,1.6-4.9,3.9-5.5,6.9c-1.1,5.1,1.6,12.1,8.1,21.2 c-8-7.2-14.2-10.6-19.2-10.6c-3.5,0-6.3,1.6-8.4,4.6c-1.9,2.8-2.5,5.7-1.6,8.7c1.4,5,7,9.9,17,15c-5.5-1.4-10.1-2.1-13.8-2.1 c-10.6,0-12.9,6-13.4,9.6c-0.4,3.2,0.4,6,2.4,8.2c3.4,3.8,10.2,5.7,20.8,5.7c0.5,0,0.9,0,1.4,0c-11.2,2.7-17.6,6.1-20.1,10.7 c-1.5,2.6-1.6,5.5-0.4,8.7c1.7,4.5,5.3,6.9,10.3,6.9c4.5,0,10.4-2,17.9-6.1c-8.6,7.6-12.7,13.6-12.9,18.8c-0.1,3,1.2,5.7,3.6,7.9 c2.1,1.9,4.4,2.8,6.9,2.8c5.7,0,11.6-4.8,18.5-15.2c-4.1,10.7-4.9,18-2.6,22.6c1.3,2.7,3.7,4.5,6.9,5.3c1,0.2,2,0.4,2.9,0.4 c9.5,0,12.7-11.8,13.9-23c1.3,11.2,4.5,23,13.8,23c0.9,0,1.9-0.1,2.9-0.4c3.3-0.8,5.7-2.6,7-5.4c2.3-4.7,1.4-12.1-2.8-22.5 c7.1,10.3,13,15.2,18.6,15.2c2.4,0,4.7-0.9,6.8-2.8c2.5-2.3,3.8-5,3.7-8.1c-0.2-5.2-4.4-11.3-12.9-18.7c7.6,4,13.6,6,18,6 c5,0,8.5-2.4,10.2-6.8c1.2-3.2,1-6.1-0.5-8.8c-2.6-4.5-9.2-8-20.1-10.5c0.2,0,0.3,0,0.5,0c11.4,0,18.3-1.8,21.8-5.7 C331.9,249,332.7,246.2,332.3,243z" style="fill: rgb(52, 52, 52);"/>
    <g>
      <path class="st0" d="M227.7,235.7c5.6,2.5,13.5,6.3,19.8,9c1-2,2.4-3.8,4.1-5.2c-4.1-4-9.7-9.2-16.4-15.8 c-14.6-14.2-23-16.8-27.5-10.3C203.2,220.1,208.8,227.3,227.7,235.7z" style="fill: rgb(244, 173, 177);"/>
      <path class="st0" d="M247.8,260.8c-1.1-2-1.8-4.3-2-6.7c-5.5,1.1-12.7,2.7-21.4,4.4c-20,3.9-26.9,9.4-24.1,16.8 c2.9,7.6,12,7.1,29.7-3.8C234.9,268.5,242,264.4,247.8,260.8z" style="fill: rgb(244, 173, 177);"/>
      <path class="st0" d="M252.7,238.6c1.7-1.3,3.7-2.3,5.9-2.8c-1.7-5.4-4.3-12.8-7.3-21.8c-6.3-19.4-12.5-25.6-19.6-21.9 c-7.2,3.8-5.6,12.8,7.3,29C243,226,248.3,233.2,252.7,238.6z" style="fill: rgb(244, 173, 177);"/>
      <path class="st0" d="M224.4,253.9c6-0.4,14.4-0.7,21.2-1.2c0-0.1,0-0.1,0-0.2c0-2.3,0.5-4.5,1.3-6.6c-5.4-1.6-12.7-3.6-21.4-6.2 c-19.5-5.8-28.2-4.2-29.1,3.7C195.4,251.5,203.7,255.3,224.4,253.9z" style="fill: rgb(244, 173, 177);"/>
      <path class="st0" d="M273.5,238.8c3.5-4.5,8-10.8,13.7-18.2c12.4-16.2,13.9-24.9,6.9-28.5c-7.2-3.8-13.7,2.7-19.7,22.5 c-1.8,6-4.7,14.6-6.7,21.3C269.8,236.5,271.8,237.5,273.5,238.8z" style="fill: rgb(244, 173, 177);"/>
      <path class="st0" d="M274.5,239.7c1.7,1.5,3,3.3,4,5.3c5.1-2.4,12-5.7,20.2-9.6c18.5-8.6,23.9-15.5,19.4-22.1 c-4.6-6.7-13.4-4-27.9,10.8C285.8,228.5,279.4,234.7,274.5,239.7z" style="fill: rgb(244, 173, 177);"/>
      <path class="st0" d="M270.1,212.9c3.4-20.1,0.8-28.5-7.2-28.5c-8.1,0-10.9,8.7-7,29.1c1.2,6.2,2.6,15.1,4,22c1-0.2,2-0.3,3.1-0.3 c1.2,0,2.3,0.1,3.4,0.3C267.4,230,268.5,222.2,270.1,212.9z" style="fill: rgb(244, 173, 177);"/>
      <path class="st0" d="M293.4,275.2c-4.6-3.6-10.9-8.7-16.3-12.8c-1.4,2-3.1,3.6-5.2,4.9c2.9,4.7,6.8,10.6,11.3,17.8 c10.7,17.3,18.3,21.8,24.2,16.6C313.5,296.3,309.8,287.9,293.4,275.2z" style="fill: rgb(244, 173, 177);"/>
      <path class="st0" d="M301,258.4c-5.9-1-14.1-2.7-20.8-3.9c-0.3,2.4-1,4.6-2.2,6.6c4.8,2.8,11.1,6.3,18.6,10.7 c17.6,10.3,26.4,10.8,29.2,3.4C328.6,267.7,321.4,262,301,258.4z" style="fill: rgb(244, 173, 177);"/>
      <path class="st0" d="M246.8,287.2c-8.1,18.7-7.6,27.5,0.1,29.4c7.9,1.9,12.6-5.9,13.8-26.6c0.3-5.7,1-13.6,1.3-20.3 c-2.5-0.1-4.9-0.8-7-1.9C252.9,272.9,250.2,279.5,246.8,287.2z" style="fill: rgb(244, 173, 177);"/>
      <path class="st0" d="M270.6,268c-2.1,1-4.5,1.7-7,1.8c0.4,5.5,1.1,12.5,1.7,20.9c1.5,20.3,6.1,27.8,13.8,25.9 c7.9-1.9,8.5-11.1-0.2-29.9C276.5,281.5,273.4,274.1,270.6,268z" style="fill: rgb(244, 173, 177);"/>
      <path class="st0" d="M253.7,267.1c-2-1.3-3.8-3-5.1-5c-4.3,3.5-9.8,8.1-16.5,13.5c-15.9,12.8-19.5,20.8-13.5,26.1 c6.1,5.4,13.9,0.7,24.5-17.1C246,279.6,250.3,272.9,253.7,267.1z" style="fill: rgb(244, 173, 177);"/>
      <path class="st0" d="M329.5,243.4c-1-8-10-9.7-29.7-3.4c-5.8,1.8-14.2,4.2-20.7,6.4c0.7,1.9,1.2,4,1.2,6.2c0,0.2,0,0.3,0,0.5 c5.6,0.3,13,0.5,21.9,0.9C322.5,254.9,330.5,251.2,329.5,243.4z" style="fill: rgb(244, 173, 177);"/>
    </g>
    <path class="st1" d="M263,267c-8,0-14.5-6.5-14.5-14.5c0-8,6.5-14.5,14.5-14.5c8,0,14.5,6.5,14.5,14.5 C277.4,260.5,270.9,267,263,267z" style="fill: rgb(236, 212, 131);"/>
  </g>
</svg>